<svg width="63" height="48" viewBox="0 0 63 48" fill="none" xmlns="http://www.w3.org/2000/svg">
<g id="automation-4p-svgrepo-com 1" clip-path="url(#clip0_103_775)">
<path id="Vector" d="M36.0489 29.1624L36.1164 29.2943L36.2623 29.2682C36.8158 29.1689 37.3771 29.1191 37.9395 29.1193H37.9396C39.1225 29.1193 40.254 29.3371 41.2961 29.7343L41.4411 29.7896L41.5306 29.6628L45.6616 23.8158L45.6659 23.8182L45.9129 23.5103C44.3758 21.8007 43.5276 19.5862 43.5309 17.2922V17.2919C43.5309 12.1343 47.7317 7.95155 52.9155 7.95155C58.0992 7.95155 62.3 12.1343 62.3 17.2919C62.3 22.4496 58.0992 26.6323 52.9155 26.6323C51.8381 26.6323 50.8035 26.4515 49.8402 26.1194L49.696 26.0697L49.6099 26.1956L45.3238 32.4678L45.2409 32.5891L45.3319 32.7045C46.6258 34.3461 47.3275 36.373 47.3242 38.4593V38.4596C47.3242 43.6173 43.1234 47.8 37.9396 47.8C32.7558 47.8 28.5551 43.6173 28.5551 38.4596C28.5551 35.6092 29.8378 33.0569 31.8611 31.3431L31.9815 31.2411L31.9103 31.1003L25.6912 18.7932L25.6222 18.6567L25.4725 18.6875C24.8442 18.8164 24.2044 18.8811 23.5629 18.8807H23.5627C22.7549 18.8813 21.9505 18.7783 21.1693 18.5742L21.0209 18.5354L20.945 18.6686L16.5373 26.3993L16.4598 26.5353L16.5731 26.6432C18.3581 28.3438 19.4691 30.7383 19.4691 33.3913C19.4691 38.5489 15.2683 42.7317 10.0845 42.7317C4.90076 42.7317 0.7 38.5489 0.7 33.3913C0.7 28.2337 4.90076 24.0509 10.0845 24.0509C10.8636 24.0509 11.62 24.1453 12.3431 24.323L12.4899 24.3591L12.5647 24.2276L17.0002 16.4254L17.0762 16.2917L16.9666 16.1839C15.2447 14.491 14.1783 12.14 14.1783 9.54037C14.1783 4.38273 18.379 0.2 23.5628 0.2C28.7466 0.2 32.9473 4.38273 32.9473 9.54037C32.9473 12.3313 31.7176 14.8363 29.7674 16.5483L29.6504 16.6511L29.7213 16.7897L36.0489 29.1624ZM52.9155 22.2621C55.6719 22.2621 57.9077 20.0379 57.9077 17.2919C57.9077 14.546 55.6719 12.3217 52.9155 12.3217C50.159 12.3217 47.9232 14.546 47.9232 17.2919C47.9232 20.0379 50.159 22.2621 52.9155 22.2621ZM10.0845 38.3615C12.841 38.3615 15.0768 36.1373 15.0768 33.3913C15.0768 30.6453 12.841 28.4211 10.0845 28.4211C7.32813 28.4211 5.09227 30.6453 5.09227 33.3913C5.09227 36.1373 7.32813 38.3615 10.0845 38.3615ZM23.5628 14.5106C26.3192 14.5106 28.5551 12.2863 28.5551 9.54037C28.5551 6.79441 26.3192 4.57019 23.5628 4.57019C20.8064 4.57019 18.5705 6.79441 18.5705 9.54037C18.5705 12.2863 20.8064 14.5106 23.5628 14.5106ZM37.9396 43.4298C40.696 43.4298 42.9319 41.2056 42.9319 38.4596C42.9319 35.7137 40.696 33.4894 37.9396 33.4894C35.1832 33.4894 32.9473 35.7137 32.9473 38.4596C32.9473 41.2056 35.1832 43.4298 37.9396 43.4298Z" fill="url(#paint0_linear_103_775)" stroke="url(#paint1_linear_103_775)" stroke-width="0.4"/>
</g>
<defs>
<linearGradient id="paint0_linear_103_775" x1="31.5" y1="0" x2="31.5" y2="48" gradientUnits="userSpaceOnUse">
<stop stop-color="#00B4D8"/>
<stop offset="1" stop-color="#1882DE"/>
</linearGradient>
<linearGradient id="paint1_linear_103_775" x1="4.51362" y1="2.0027e-06" x2="58.2649" y2="48.2467" gradientUnits="userSpaceOnUse">
<stop stop-color="#000B1A"/>
<stop offset="1" stop-color="#000D20"/>
</linearGradient>
<clipPath id="clip0_103_775">
<rect width="62" height="48" fill="white" transform="translate(0.5)"/>
</clipPath>
</defs>
</svg>
