<svg width="68" height="48" viewBox="0 0 68 48" fill="none" xmlns="http://www.w3.org/2000/svg">
<g id="cms-svgrepo-com 1" clip-path="url(#clip0_103_761)">
<path id="Vector" d="M27.1998 43.0506C25.7161 43.4302 24.1349 43.5699 22.3867 43.5699C10.6857 43.5699 1.15 34.0342 1.15 22.3332C1.15 10.6365 10.6813 1.2082 22.3867 1.2082C34.0877 1.2082 43.6233 10.7438 43.6233 22.4449C43.6233 24.7326 43.2959 27.0066 42.6517 28.9393L42.6356 28.9877L42.6272 29.038C42.5852 29.2896 42.501 29.5081 42.3825 29.7715C42.3606 29.8201 42.3369 29.8715 42.3119 29.9256C42.2121 30.1423 42.0926 30.4014 41.9937 30.6904C41.3418 32.0975 40.4731 33.6163 39.4956 35.0282L39.0572 35.6615L39.7551 35.9872C41.5383 36.8194 43.6479 37.1649 45.6133 37.1649C53.789 37.1649 60.445 30.5088 60.445 22.3332C60.445 14.2376 53.9186 7.63196 45.8529 7.50344C44.4112 5.3399 42.7279 3.33215 40.8002 1.61577C42.2839 1.23624 43.8651 1.09653 45.6133 1.09653C57.3144 1.09653 66.85 10.6322 66.85 22.3332C66.85 34.0342 57.3144 43.5699 45.6133 43.5699C33.9123 43.5699 24.3767 34.0342 24.3767 22.3332C24.3767 17.5673 26.0019 13.1246 28.6017 9.6582L29.0941 9.00165L28.3422 8.6727C26.4579 7.84833 24.3561 7.50153 22.3867 7.50153C14.211 7.50153 7.555 14.1575 7.555 22.3332C7.555 30.4288 14.0814 37.0344 22.1471 37.163C23.5888 39.3265 25.2722 41.3343 27.1998 43.0506Z" fill="url(#paint0_linear_103_761)" stroke="url(#paint1_linear_103_761)" stroke-width="1.3"/>
</g>
<defs>
<linearGradient id="paint0_linear_103_761" x1="34" y1="0.446533" x2="34" y2="44.2199" gradientUnits="userSpaceOnUse">
<stop stop-color="#00B4D8"/>
<stop offset="1" stop-color="#1882DE"/>
</linearGradient>
<linearGradient id="paint1_linear_103_761" x1="5.99898" y1="0.446527" x2="68.9574" y2="15.9251" gradientUnits="userSpaceOnUse">
<stop stop-color="#030E1D"/>
<stop offset="1" stop-color="#020D1A"/>
</linearGradient>
<clipPath id="clip0_103_761">
<rect width="67" height="48" fill="white" transform="translate(0.5)"/>
</clipPath>
</defs>
</svg>
