<svg width="48" height="48" viewBox="0 0 48 48" fill="none" xmlns="http://www.w3.org/2000/svg">
<g id="Group">
<path id="Vector" d="M30.2588 13.1346C30.2402 13.1532 30.2126 13.1625 30.1941 13.1715C30.305 13.6706 30.2774 14.1975 30.1848 14.7059C30.499 15.0571 30.3604 15.7502 29.7504 15.7502C28.8816 15.7409 28.0219 15.7409 27.153 15.7409C29.2605 21.5358 32.1075 27.6265 33.5311 33.6342C34.2152 31.0186 35.1302 28.4585 35.5648 25.7782C36.2858 21.3789 35.1026 18.4028 33.8732 14.2991C33.1984 12.0718 33.4388 10.1864 34.7605 8.77222C30.6287 6.02721 25.9791 4.62235 20.9044 5.48196C17.6785 6.01794 14.7944 7.33973 12.2525 9.39147C11.2635 10.1956 10.4223 11.1012 9.44239 11.8499C10.9305 11.8499 12.4189 11.8961 13.8977 11.933C14.3414 11.9516 14.5725 12.2843 14.5911 12.6354C14.7206 12.7277 14.8129 12.8757 14.8315 13.0975C14.8315 13.153 14.8408 13.2084 14.8408 13.2639C14.8777 13.8924 14.8408 14.5393 14.8222 15.1678C14.8129 15.482 14.5449 15.8056 14.2029 15.7871C13.5281 15.7409 12.8533 15.6393 12.1785 15.5284C14.6094 21.0184 16.6155 26.7764 18.8524 32.368C18.9819 32.0168 19.1204 31.6657 19.2499 31.3144C19.9433 28.3383 20.7842 25.2884 22.0046 22.6082C20.9137 20.4177 20.0356 17.8852 19.592 15.5193C18.7415 15.4546 17.891 15.3806 17.0408 15.2697C16.708 15.2235 16.5693 14.9277 16.634 14.6873C16.5971 14.6226 16.5693 14.5486 16.56 14.4562C16.5045 14.0311 16.4584 13.6244 16.4398 13.1994C16.4305 13.0606 16.4305 12.9221 16.4305 12.7834C16.4305 12.4228 16.68 12.2381 16.9482 12.201C16.9851 12.1087 17.0499 12.0254 17.1608 12.0068C19.5548 11.6187 21.9953 11.7481 24.4077 11.7757C26.0253 11.7943 28.6966 11.3136 30.185 12.0344C30.5825 12.2194 30.5918 12.7832 30.3237 13.0695C30.2957 13.0977 30.2774 13.1161 30.2588 13.1346ZM40.8889 7.37663C48.2839 14.0497 49.772 24.9003 46.0007 33.9021C41.9705 43.5049 32.4127 47.2481 22.6144 47.9968C22.4111 48.0153 22.2631 47.9506 22.1615 47.849C11.4204 47.6179 2.15839 39.6694 0.337288 28.8652C-1.34506 18.9112 3.38778 8.99403 11.8179 3.57802C21.6716 -2.75306 32.5234 -0.183683 40.8889 7.37663ZM34.9914 39.5863C40.9535 33.8098 44.0963 26.952 42.0812 18.597C39.7519 25.5933 37.4226 32.6267 34.9914 39.5863ZM29.8244 42.5901C28.669 40.4736 27.9664 38.0706 27.1069 35.8339C26.1362 33.3107 25.1196 30.7968 24.2137 28.2552C22.4573 33.2924 20.7381 38.3664 18.6675 43.2464C20.6919 43.5606 22.7163 43.7824 24.7683 43.6346C26.5521 43.5142 28.1513 43.0244 29.8244 42.5901ZM14.7111 41.1945C11.7439 33.2184 8.44391 25.2975 5.79111 17.2198C1.3634 26.2957 6.36406 36.2035 14.7111 41.1945Z" fill="url(#paint0_linear_125_17)"/>
</g>
<defs>
<linearGradient id="paint0_linear_125_17" x1="24" y1="0" x2="24" y2="48" gradientUnits="userSpaceOnUse">
<stop stop-color="#00B4D8"/>
<stop offset="1" stop-color="#1882DE"/>
</linearGradient>
</defs>
</svg>
